<svg id="Layer_1" data-name="Layer 1" xmlns="http://www.w3.org/2000/svg" viewBox="0 0 24.09 24.64"><defs><style>.cls-1{fill:#fff;}</style></defs><g id="Group_65" data-name="Group 65"><path id="Path_47" data-name="Path 47" class="cls-1" d="M13.46,12.32,23.79,1.76a1,1,0,0,0,0-1.45,1,1,0,0,0-1.39,0l0,0,0,0L12,10.87,1.71.31a1,1,0,0,0-1.4,0l0,0a1,1,0,0,0,0,1.42L10.62,12.32.29,22.88a1,1,0,0,0,0,1.45,1,1,0,0,0,1.4,0l0,0L12,13.77,22.37,24.33a1,1,0,0,0,1.4,0l0,0a1.06,1.06,0,0,0,0-1.43Z" transform="translate(0 0)"/></g></svg>