<svg id="Layer_1" data-name="Layer 1" xmlns="http://www.w3.org/2000/svg" viewBox="0 0 26.61 23.26"><defs><style>.cls-1{fill:#fff;}</style></defs><path id="Path_74" data-name="Path 74" class="cls-1" d="M25.5,13H1.11a1.36,1.36,0,0,1,0-2.68H25.5a1.36,1.36,0,0,1,0,2.68Z" transform="translate(0 0)"/><path id="Path_75" data-name="Path 75" class="cls-1" d="M25.5,2.68H1.11A1.25,1.25,0,0,1,0,1.34,1.25,1.25,0,0,1,1.11,0H25.5a1.24,1.24,0,0,1,1.1,1.34A1.23,1.23,0,0,1,25.5,2.68Z" transform="translate(0 0)"/><path id="Path_76" data-name="Path 76" class="cls-1" d="M25.5,23.26H1.11a1.36,1.36,0,0,1,0-2.68H25.5a1.36,1.36,0,0,1,0,2.68Z" transform="translate(0 0)"/></svg>