<svg id="Layer_1" data-name="Layer 1" xmlns="http://www.w3.org/2000/svg" viewBox="0 0 120.01 26.32"><defs><style>.cls-1{fill:#9f9f9f;}</style></defs><g id="Group_8" data-name="Group 8"><path id="Path_13" data-name="Path 13" class="cls-1" d="M47.31,23a1,1,0,0,1-.4,1,2.44,2.44,0,0,1-1.22.23,2.39,2.39,0,0,1-1.2-.23,1,1,0,0,1-.39-1V6.86a1,1,0,0,1,.39-1,2.39,2.39,0,0,1,1.2-.23,2.56,2.56,0,0,1,1.22.23,1,1,0,0,1,.4,1Z" transform="translate(0 0)"/><path id="Path_14" data-name="Path 14" class="cls-1" d="M49.28,7.24a1.41,1.41,0,0,1,.47-1.19,3.25,3.25,0,0,1,3.06,0,1.76,1.76,0,0,1,0,2.38,3.31,3.31,0,0,1-3.06,0A1.41,1.41,0,0,1,49.28,7.24ZM52.89,23a1,1,0,0,1-.4,1,3.27,3.27,0,0,1-2.41,0,1,1,0,0,1-.39-1V11.08a1,1,0,0,1,.39-1,3.27,3.27,0,0,1,2.41,0,1,1,0,0,1,.4,1Z" transform="translate(0 0)"/><path id="Path_15" data-name="Path 15" class="cls-1" d="M73.93,9.72a2.49,2.49,0,0,1,1.2.22,1.05,1.05,0,0,1,.39,1v8.8c0,2.94-2.39,4.4-7.16,4.4h-6c-4.77,0-7.15-1.46-7.15-4.4V10.9a1,1,0,0,1,.4-1,2.51,2.51,0,0,1,1.21-.22,2.47,2.47,0,0,1,1.2.22,1,1,0,0,1,.39,1v8.8a1.54,1.54,0,0,0,1,1.32,6.69,6.69,0,0,0,3.09.53h5.84A6.65,6.65,0,0,0,71.34,21a1.53,1.53,0,0,0,1-1.32V10.9a1,1,0,0,1,.4-1A2.61,2.61,0,0,1,73.93,9.72Z" transform="translate(0 0)"/><path id="Path_16" data-name="Path 16" class="cls-1" d="M77.46,13.61A3.2,3.2,0,0,1,79,10.83a8.13,8.13,0,0,1,4.5-1h3.46a.79.79,0,0,1,.76.31,2.06,2.06,0,0,1,.18,1,1.91,1.91,0,0,1-.18.94.79.79,0,0,1-.76.32H83.46a5,5,0,0,0-2.13.34,1,1,0,0,0-.68.92v.66a1.07,1.07,0,0,0,.71.94,5.42,5.42,0,0,0,2.22.35h5.59a9.82,9.82,0,0,1,5.11,1,3.2,3.2,0,0,1,1.56,2.83v.81a3.07,3.07,0,0,1-1.67,2.84,7,7,0,0,1-2.22.76,17.86,17.86,0,0,1-3.26.27H78.45a.81.81,0,0,1-.76-.32,2.14,2.14,0,0,1-.17-1,2.06,2.06,0,0,1,.17-.95.81.81,0,0,1,.76-.32H89.17a13.5,13.5,0,0,0,1.68-.08,4.33,4.33,0,0,0,1.06-.26,1.14,1.14,0,0,0,.55-.39,1,1,0,0,0,.15-.53v-.91a1,1,0,0,0-.15-.53,1.26,1.26,0,0,0-.54-.4,3.58,3.58,0,0,0-1-.27,12.71,12.71,0,0,0-1.63-.08H83.61a8.64,8.64,0,0,1-4.6-1,3.12,3.12,0,0,1-1.54-2.75Z" transform="translate(0 0)"/><path id="Path_17" data-name="Path 17" class="cls-1" d="M97.13,22.63a1.5,1.5,0,0,1,.47-1.19,3.31,3.31,0,0,1,3.06,0,1.76,1.76,0,0,1,0,2.38,3.25,3.25,0,0,1-3.06,0A1.47,1.47,0,0,1,97.13,22.63Z" transform="translate(0 0)"/><path id="Path_18" data-name="Path 18" class="cls-1" d="M106.71,23a1,1,0,0,1-.4,1,2.41,2.41,0,0,1-1.21.23,2.37,2.37,0,0,1-1.2-.23,1,1,0,0,1-.39-1V6.86a1,1,0,0,1,.39-1,2.37,2.37,0,0,1,1.2-.23,2.52,2.52,0,0,1,1.21.23,1,1,0,0,1,.4,1Z" transform="translate(0 0)"/><path id="Path_19" data-name="Path 19" class="cls-1" d="M110.56,9.82v-3a1,1,0,0,1,.39-1,2.37,2.37,0,0,1,1.2-.23,2.54,2.54,0,0,1,1.21.23,1,1,0,0,1,.4,1v3h5.33q.59,0,.75.33a2.09,2.09,0,0,1,.16,1,2,2,0,0,1-.16.94c-.11.22-.36.32-.75.32h-5.33V23a1,1,0,0,1-.4,1,2.43,2.43,0,0,1-1.21.23A2.37,2.37,0,0,1,111,24a1,1,0,0,1-.39-1V12.37h-1.45c-.38,0-.63-.1-.74-.32a2.15,2.15,0,0,1-.17-.94,2.24,2.24,0,0,1,.17-1c.11-.22.36-.33.74-.33Z" transform="translate(0 0)"/><path id="Path_20" data-name="Path 20" class="cls-1" d="M3.27,5.27V4.54a1.6,1.6,0,0,1,1-1.36,6.66,6.66,0,0,1,3.11-.55H24.28c.39,0,.65-.11.76-.33a2.9,2.9,0,0,0,0-2C24.93.11,24.67,0,24.28,0H7.14c-4.68,0-7,1.55-7,4.66V15.8H3.27Z" transform="translate(0 0)"/><path id="Path_21" data-name="Path 21" class="cls-1" d="M0,25.14a1,1,0,0,0,.42.95,2.74,2.74,0,0,0,1.23.22,2.8,2.8,0,0,0,1.25-.22,1,1,0,0,0,.43-.95V18.42H0Z" transform="translate(0 0)"/><path id="Path_22" data-name="Path 22" class="cls-1" d="M40.47,10.9c-1.12-.72-2.95-1.08-5.47-1.08H29.16c-4.77,0-7.16,1.46-7.16,4.4v1.71H3.34v2.48H22V19.7c0,2.94,2.39,4.4,7.16,4.4h3q.59,0,.75-.33a2.09,2.09,0,0,0,.16-1,2,2,0,0,0-.16-.94c-.11-.21-.36-.32-.75-.32h-2.9A6.68,6.68,0,0,1,26.17,21a1.55,1.55,0,0,1-1-1.3V18.42H40.64a1.89,1.89,0,0,0,1.23-.28,1.41,1.41,0,0,0,.28-1V14.22A3.68,3.68,0,0,0,40.47,10.9Zm-1.53,5H25.21v-1.7a1.56,1.56,0,0,1,1-1.31,6.69,6.69,0,0,1,3.09-.53H34.9a7.31,7.31,0,0,1,3.1.48,1.49,1.49,0,0,1,.94,1.36Z" transform="translate(0 0)"/></g></svg>