<?xml version="1.0" encoding="UTF-8" standalone="no"?>
<svg
   xmlns:dc="http://purl.org/dc/elements/1.1/"
   xmlns:cc="http://creativecommons.org/ns#"
   xmlns:rdf="http://www.w3.org/1999/02/22-rdf-syntax-ns#"
   xmlns:svg="http://www.w3.org/2000/svg"
   xmlns="http://www.w3.org/2000/svg"
   xmlns:sodipodi="http://sodipodi.sourceforge.net/DTD/sodipodi-0.dtd"
   xmlns:inkscape="http://www.inkscape.org/namespaces/inkscape"
   id="Layer_1"
   data-name="Layer 1"
   viewBox="0 0 170.49 37.37"
   version="1.1"
   sodipodi:docname="logowhite.svg"
   inkscape:version="1.0.1 (3bc2e813f5, 2020-09-07)">
  <metadata
     id="metadata48">
    <rdf:RDF>
      <cc:Work
         rdf:about="">
        <dc:format>image/svg+xml</dc:format>
        <dc:type
           rdf:resource="http://purl.org/dc/dcmitype/StillImage" />
        <dc:title></dc:title>
      </cc:Work>
    </rdf:RDF>
  </metadata>
  <sodipodi:namedview
     pagecolor="#ffffff"
     bordercolor="#666666"
     borderopacity="1"
     objecttolerance="10"
     gridtolerance="10"
     guidetolerance="10"
     inkscape:pageopacity="0"
     inkscape:pageshadow="2"
     inkscape:window-width="1707"
     inkscape:window-height="976"
     id="namedview46"
     showgrid="false"
     inkscape:zoom="7.2262303"
     inkscape:cx="85.245"
     inkscape:cy="18.685"
     inkscape:window-x="0"
     inkscape:window-y="0"
     inkscape:window-maximized="0"
     inkscape:current-layer="Layer_1" />
  <defs
     id="defs32">
    <style
       id="style30">.cls-1{fill:#323840;}.cls-2{fill:#ed761e;}</style>
  </defs>
  <g
     id="Group_19"
     data-name="Group 19">
    <path
       id="Path_13"
       data-name="Path 13"
       class="cls-1"
       d="M67.21,32.69a1.45,1.45,0,0,1-.58,1.36,3.52,3.52,0,0,1-1.72.32,3.46,3.46,0,0,1-1.71-.32,1.43,1.43,0,0,1-.55-1.36V9.74a1.45,1.45,0,0,1,.55-1.37,3.46,3.46,0,0,1,1.71-.32,3.52,3.52,0,0,1,1.72.32,1.46,1.46,0,0,1,.58,1.37Z"
       transform="translate(0)"
       style="fill:#ffffff" />
    <path
       id="Path_14"
       data-name="Path 14"
       class="cls-1"
       d="M70,10.28a2,2,0,0,1,.66-1.69,4.65,4.65,0,0,1,4.35,0A2.48,2.48,0,0,1,75,12a4.65,4.65,0,0,1-4.35,0A2,2,0,0,1,70,10.28Zm5.13,22.41a1.42,1.42,0,0,1-.57,1.36,3.54,3.54,0,0,1-1.73.32,3.45,3.45,0,0,1-1.7-.32,1.44,1.44,0,0,1-.56-1.36v-17a1.46,1.46,0,0,1,.56-1.36,3.45,3.45,0,0,1,1.7-.32,3.54,3.54,0,0,1,1.73.32,1.42,1.42,0,0,1,.57,1.36Z"
       transform="translate(0)"
       style="fill:#ffffff" />
    <path
       id="Path_15"
       data-name="Path 15"
       class="cls-1"
       d="M105,13.8a3.46,3.46,0,0,1,1.71.32,1.46,1.46,0,0,1,.56,1.36V28q0,6.25-10.17,6.25H88.54q-10.17,0-10.16-6.25V15.48A1.42,1.42,0,0,1,79,14.12a3.54,3.54,0,0,1,1.73-.32,3.45,3.45,0,0,1,1.7.32,1.46,1.46,0,0,1,.56,1.36V28a2.18,2.18,0,0,0,1.36,1.87,9.55,9.55,0,0,0,4.38.75H97a9.57,9.57,0,0,0,4.39-.75A2.18,2.18,0,0,0,102.73,28V15.48a1.42,1.42,0,0,1,.58-1.36A3.46,3.46,0,0,1,105,13.8Z"
       transform="translate(0)"
       style="fill:#ffffff" />
    <path
       id="Path_16"
       data-name="Path 16"
       class="cls-1"
       d="M110.05,19.33a4.47,4.47,0,0,1,2.16-3.95q2.15-1.44,6.39-1.44h4.92a1.15,1.15,0,0,1,1.08.44,3,3,0,0,1,.25,1.39,2.94,2.94,0,0,1-.25,1.34,1.14,1.14,0,0,1-1.08.45h-5a7,7,0,0,0-3,.49,1.45,1.45,0,0,0-1,1.31v.93a1.49,1.49,0,0,0,1,1.33,7.27,7.27,0,0,0,3.16.5h7.94q5,0,7.25,1.44a4.54,4.54,0,0,1,2.23,4v1.15a4.41,4.41,0,0,1-2.37,4,10.47,10.47,0,0,1-3.16,1.08,24.79,24.79,0,0,1-4.63.37H111.45a1.12,1.12,0,0,1-1.08-.45,3,3,0,0,1-.25-1.38,2.94,2.94,0,0,1,.25-1.34,1.12,1.12,0,0,1,1.08-.45h15.23a19.14,19.14,0,0,0,2.39-.13,5.57,5.57,0,0,0,1.5-.36,1.69,1.69,0,0,0,.78-.56,1.31,1.31,0,0,0,.21-.75V27.51a1.36,1.36,0,0,0-.21-.76,1.9,1.9,0,0,0-.75-.57,5.31,5.31,0,0,0-1.46-.37,16.27,16.27,0,0,0-2.31-.13h-8c-2.9,0-5.07-.47-6.53-1.42a4.41,4.41,0,0,1-2.2-3.9Z"
       transform="translate(0)"
       style="fill:#ffffff" />
    <path
       id="Path_17"
       data-name="Path 17"
       class="cls-2"
       d="M138,32.15a2.06,2.06,0,0,1,.66-1.69,4.65,4.65,0,0,1,4.35,0,2.47,2.47,0,0,1,0,3.38,4.71,4.71,0,0,1-4.35,0A2.07,2.07,0,0,1,138,32.15Z"
       transform="translate(0)" />
    <path
       id="Path_18"
       data-name="Path 18"
       class="cls-2"
       d="M151.6,32.69a1.42,1.42,0,0,1-.57,1.36,3.56,3.56,0,0,1-1.73.32,3.42,3.42,0,0,1-1.7-.32,1.44,1.44,0,0,1-.56-1.36V9.74a1.46,1.46,0,0,1,.56-1.37,3.42,3.42,0,0,1,1.7-.32,3.56,3.56,0,0,1,1.73.32,1.43,1.43,0,0,1,.57,1.37Z"
       transform="translate(0)" />
    <path
       id="Path_19"
       data-name="Path 19"
       class="cls-2"
       d="M157.06,13.94V9.74a1.46,1.46,0,0,1,.56-1.37,3.45,3.45,0,0,1,1.7-.32,3.66,3.66,0,0,1,1.73.32,1.43,1.43,0,0,1,.57,1.37v4.2h7.58c.55,0,.9.15,1.06.47a3.31,3.31,0,0,1,.23,1.36,3,3,0,0,1-.23,1.35c-.16.3-.51.45-1.06.45h-7.58V32.69a1.42,1.42,0,0,1-.58,1.36,4.76,4.76,0,0,1-3.43,0,1.43,1.43,0,0,1-.55-1.36V17.57H155c-.55,0-.9-.15-1.06-.45a3,3,0,0,1-.23-1.35A3.07,3.07,0,0,1,154,14.4c.16-.31.51-.46,1.06-.46Z"
       transform="translate(0)" />
    <path
       id="Path_20"
       data-name="Path 20"
       class="cls-1"
       d="M4.65,7.48v-1A2.25,2.25,0,0,1,6,4.52a9.2,9.2,0,0,1,4.42-.78H34.5a1.1,1.1,0,0,0,1.07-.47,4.08,4.08,0,0,0,0-2.8A1.1,1.1,0,0,0,34.5,0H10.15q-10,0-10,6.63V22.44H4.65Z"
       transform="translate(0)"
       style="fill:#ffffff" />
    <path
       id="Path_21"
       data-name="Path 21"
       class="cls-1"
       d="M0,35.7a1.41,1.41,0,0,0,.6,1.35,3.89,3.89,0,0,0,1.75.32,4,4,0,0,0,1.77-.32,1.38,1.38,0,0,0,.6-1.35V26.15H0Z"
       transform="translate(0)"
       style="fill:#ffffff" />
    <path
       id="Path_22"
       data-name="Path 22"
       class="cls-1"
       d="M57.49,15.48c-1.59-1-4.18-1.54-7.77-1.54h-8.3q-10.17,0-10.17,6.25v2.43H4.74v3.53H31.26V28q0,6.25,10.16,6.25h4.27c.55,0,.91-.15,1.06-.46A3.23,3.23,0,0,0,47,32.4a3.14,3.14,0,0,0-.24-1.35c-.15-.29-.51-.44-1.06-.44H41.56a9.3,9.3,0,0,1-4.38-.78A2.2,2.2,0,0,1,35.82,28V26.15H57.73a2.62,2.62,0,0,0,1.76-.4,2,2,0,0,0,.4-1.44V20.18A5.23,5.23,0,0,0,57.49,15.48Zm-2.17,7.11H35.82V20.18a2.18,2.18,0,0,1,1.36-1.86,9.58,9.58,0,0,1,4.39-.76h8a10.48,10.48,0,0,1,4.4.68,2.13,2.13,0,0,1,1.35,1.94Z"
       transform="translate(0)"
       style="fill:#ffffff" />
  </g>
</svg>
